<mxfile host="app.diagrams.net" modified="2022-09-30T08:50:52.763Z" agent="5.0 (Windows NT 10.0; Win64; x64) AppleWebKit/537.36 (KHTML, like Gecko) Chrome/105.0.0.0 Safari/537.36" etag="rpRxOMS2H2ctS3Dd4jHv" version="20.3.7" type="github">
  <diagram id="-iGVEx5ZZmZ7yN3gthT9" name="PÃ¡gina-1">
    <mxGraphModel dx="1021" dy="541" grid="1" gridSize="10" guides="1" tooltips="1" connect="1" arrows="0" fold="1" page="1" pageScale="1" pageWidth="1169" pageHeight="827" math="0" shadow="0">
      <root>
        <mxCell id="0" />
        <mxCell id="1" parent="0" />
        <mxCell id="UDWT9HmrUv0HXfJKakE0-8" style="edgeStyle=orthogonalEdgeStyle;rounded=0;orthogonalLoop=1;jettySize=auto;html=1;exitX=1;exitY=0.5;exitDx=0;exitDy=0;entryX=0;entryY=0.5;entryDx=0;entryDy=0;endArrow=none;endFill=0;" parent="1" source="UDWT9HmrUv0HXfJKakE0-1" target="UDWT9HmrUv0HXfJKakE0-7" edge="1">
          <mxGeometry relative="1" as="geometry" />
        </mxCell>
        <mxCell id="UDWT9HmrUv0HXfJKakE0-1" value="SUPERMERCADO" style="rounded=0;whiteSpace=wrap;html=1;fillColor=#f8cecc;strokeColor=#b85450;" parent="1" vertex="1">
          <mxGeometry x="347" y="338" width="120" height="60" as="geometry" />
        </mxCell>
        <mxCell id="UDWT9HmrUv0HXfJKakE0-5" style="edgeStyle=orthogonalEdgeStyle;rounded=0;orthogonalLoop=1;jettySize=auto;html=1;exitX=0.5;exitY=1;exitDx=0;exitDy=0;entryX=0.5;entryY=0;entryDx=0;entryDy=0;endArrow=none;endFill=0;" parent="1" source="UDWT9HmrUv0HXfJKakE0-2" target="UDWT9HmrUv0HXfJKakE0-4" edge="1">
          <mxGeometry relative="1" as="geometry" />
        </mxCell>
        <mxCell id="UDWT9HmrUv0HXfJKakE0-28" style="edgeStyle=orthogonalEdgeStyle;rounded=0;orthogonalLoop=1;jettySize=auto;html=1;exitX=0;exitY=0.5;exitDx=0;exitDy=0;entryX=1;entryY=0.5;entryDx=0;entryDy=0;dashed=1;endArrow=none;endFill=0;" parent="1" source="UDWT9HmrUv0HXfJKakE0-2" edge="1">
          <mxGeometry relative="1" as="geometry">
            <mxPoint x="327.0000000000001" y="183" as="targetPoint" />
          </mxGeometry>
        </mxCell>
        <mxCell id="UDWT9HmrUv0HXfJKakE0-2" value="DIRECTOR" style="rounded=0;whiteSpace=wrap;html=1;fillColor=#f8cecc;strokeColor=#b85450;" parent="1" vertex="1">
          <mxGeometry x="347" y="158" width="120" height="60" as="geometry" />
        </mxCell>
        <mxCell id="UDWT9HmrUv0HXfJKakE0-6" style="edgeStyle=orthogonalEdgeStyle;rounded=0;orthogonalLoop=1;jettySize=auto;html=1;exitX=0.5;exitY=1;exitDx=0;exitDy=0;entryX=0.5;entryY=0;entryDx=0;entryDy=0;endArrow=none;endFill=0;" parent="1" source="UDWT9HmrUv0HXfJKakE0-4" target="UDWT9HmrUv0HXfJKakE0-1" edge="1">
          <mxGeometry relative="1" as="geometry" />
        </mxCell>
        <mxCell id="UDWT9HmrUv0HXfJKakE0-4" value="DIRIGE" style="rhombus;whiteSpace=wrap;html=1;fillColor=#e1d5e7;strokeColor=#9673a6;" parent="1" vertex="1">
          <mxGeometry x="367" y="238" width="80" height="80" as="geometry" />
        </mxCell>
        <mxCell id="UDWT9HmrUv0HXfJKakE0-10" style="edgeStyle=orthogonalEdgeStyle;rounded=0;orthogonalLoop=1;jettySize=auto;html=1;exitX=1;exitY=0.5;exitDx=0;exitDy=0;entryX=0;entryY=0.5;entryDx=0;entryDy=0;endArrow=none;endFill=0;" parent="1" source="UDWT9HmrUv0HXfJKakE0-7" target="UDWT9HmrUv0HXfJKakE0-9" edge="1">
          <mxGeometry relative="1" as="geometry" />
        </mxCell>
        <mxCell id="UDWT9HmrUv0HXfJKakE0-7" value="CONTIENEN" style="rhombus;whiteSpace=wrap;html=1;" parent="1" vertex="1">
          <mxGeometry x="487" y="328" width="80" height="80" as="geometry" />
        </mxCell>
        <mxCell id="UDWT9HmrUv0HXfJKakE0-14" style="edgeStyle=orthogonalEdgeStyle;rounded=0;orthogonalLoop=1;jettySize=auto;html=1;exitX=1;exitY=0.5;exitDx=0;exitDy=0;entryX=0;entryY=0.5;entryDx=0;entryDy=0;endArrow=none;endFill=0;" parent="1" source="UDWT9HmrUv0HXfJKakE0-9" target="UDWT9HmrUv0HXfJKakE0-12" edge="1">
          <mxGeometry relative="1" as="geometry" />
        </mxCell>
        <mxCell id="UDWT9HmrUv0HXfJKakE0-9" value="PRODUCTOS" style="rounded=0;whiteSpace=wrap;html=1;fillColor=#dae8fc;strokeColor=#6c8ebf;" parent="1" vertex="1">
          <mxGeometry x="587" y="338" width="120" height="60" as="geometry" />
        </mxCell>
        <mxCell id="UDWT9HmrUv0HXfJKakE0-11" style="edgeStyle=orthogonalEdgeStyle;rounded=0;orthogonalLoop=1;jettySize=auto;html=1;exitX=1;exitY=0.5;exitDx=0;exitDy=0;entryX=0;entryY=0.5;entryDx=0;entryDy=0;endArrow=none;endFill=0;" parent="1" source="UDWT9HmrUv0HXfJKakE0-12" target="UDWT9HmrUv0HXfJKakE0-13" edge="1">
          <mxGeometry relative="1" as="geometry" />
        </mxCell>
        <mxCell id="UDWT9HmrUv0HXfJKakE0-12" value="VENDEN" style="rhombus;whiteSpace=wrap;html=1;" parent="1" vertex="1">
          <mxGeometry x="727" y="328" width="80" height="80" as="geometry" />
        </mxCell>
        <mxCell id="UDWT9HmrUv0HXfJKakE0-13" value="VENDEDORES" style="rounded=0;whiteSpace=wrap;html=1;fillColor=#dae8fc;strokeColor=#6c8ebf;" parent="1" vertex="1">
          <mxGeometry x="827" y="338" width="120" height="60" as="geometry" />
        </mxCell>
        <mxCell id="UDWT9HmrUv0HXfJKakE0-58" style="edgeStyle=orthogonalEdgeStyle;rounded=0;orthogonalLoop=1;jettySize=auto;html=1;exitX=0.5;exitY=1;exitDx=0;exitDy=0;entryX=0.5;entryY=0;entryDx=0;entryDy=0;dashed=1;endArrow=none;endFill=0;" parent="1" source="UDWT9HmrUv0HXfJKakE0-19" target="UDWT9HmrUv0HXfJKakE0-57" edge="1">
          <mxGeometry relative="1" as="geometry">
            <Array as="points">
              <mxPoint x="767" y="420" />
              <mxPoint x="743" y="420" />
            </Array>
          </mxGeometry>
        </mxCell>
        <mxCell id="UDWT9HmrUv0HXfJKakE0-19" value="VENDE" style="rhombus;whiteSpace=wrap;html=1;fillColor=#e1d5e7;strokeColor=#9673a6;" parent="1" vertex="1">
          <mxGeometry x="727" y="328" width="80" height="80" as="geometry" />
        </mxCell>
        <mxCell id="UDWT9HmrUv0HXfJKakE0-21" value="CONTIENEN" style="rhombus;whiteSpace=wrap;html=1;fillColor=#e1d5e7;strokeColor=#9673a6;" parent="1" vertex="1">
          <mxGeometry x="487" y="328" width="80" height="80" as="geometry" />
        </mxCell>
        <mxCell id="UDWT9HmrUv0HXfJKakE0-27" value="" style="endArrow=none;dashed=1;html=1;rounded=0;entryX=0.5;entryY=1;entryDx=0;entryDy=0;exitX=0.5;exitY=0;exitDx=0;exitDy=0;" parent="1" target="UDWT9HmrUv0HXfJKakE0-1" edge="1">
          <mxGeometry width="50" height="50" relative="1" as="geometry">
            <mxPoint x="407" y="428" as="sourcePoint" />
            <mxPoint x="412" y="353" as="targetPoint" />
          </mxGeometry>
        </mxCell>
        <mxCell id="UDWT9HmrUv0HXfJKakE0-29" value="" style="endArrow=none;dashed=1;html=1;entryX=0.5;entryY=1;entryDx=0;entryDy=0;exitX=0.5;exitY=0;exitDx=0;exitDy=0;rounded=0;" parent="1" source="UDWT9HmrUv0HXfJKakE0-9" edge="1">
          <mxGeometry width="50" height="50" relative="1" as="geometry">
            <mxPoint x="632" y="383" as="sourcePoint" />
            <mxPoint x="622" y="318" as="targetPoint" />
            <Array as="points">
              <mxPoint x="647" y="329" />
              <mxPoint x="622" y="329" />
            </Array>
          </mxGeometry>
        </mxCell>
        <mxCell id="UDWT9HmrUv0HXfJKakE0-30" value="" style="endArrow=none;dashed=1;html=1;rounded=0;entryX=0.5;entryY=1;entryDx=0;entryDy=0;exitX=0.5;exitY=0;exitDx=0;exitDy=0;" parent="1" target="UDWT9HmrUv0HXfJKakE0-13" edge="1">
          <mxGeometry width="50" height="50" relative="1" as="geometry">
            <mxPoint x="887" y="428" as="sourcePoint" />
            <mxPoint x="742" y="403" as="targetPoint" />
          </mxGeometry>
        </mxCell>
        <mxCell id="T8t1x1bYZv3rTWK3qDM8-3" style="edgeStyle=orthogonalEdgeStyle;rounded=0;orthogonalLoop=1;jettySize=auto;html=1;exitX=1;exitY=0.5;exitDx=0;exitDy=0;entryX=1;entryY=0.5;entryDx=0;entryDy=0;endArrow=none;endFill=0;" edge="1" parent="1" source="UDWT9HmrUv0HXfJKakE0-32" target="T8t1x1bYZv3rTWK3qDM8-1">
          <mxGeometry relative="1" as="geometry">
            <Array as="points">
              <mxPoint x="1030" y="368" />
              <mxPoint x="1030" y="610" />
            </Array>
          </mxGeometry>
        </mxCell>
        <mxCell id="UDWT9HmrUv0HXfJKakE0-32" value="VENDEDOR" style="rounded=0;whiteSpace=wrap;html=1;fillColor=#f8cecc;strokeColor=#b85450;" parent="1" vertex="1">
          <mxGeometry x="827" y="338" width="120" height="60" as="geometry" />
        </mxCell>
        <mxCell id="UDWT9HmrUv0HXfJKakE0-33" value="PRODUCTO" style="rounded=0;whiteSpace=wrap;html=1;fillColor=#f8cecc;strokeColor=#b85450;" parent="1" vertex="1">
          <mxGeometry x="587" y="338" width="120" height="60" as="geometry" />
        </mxCell>
        <mxCell id="UDWT9HmrUv0HXfJKakE0-59" style="edgeStyle=orthogonalEdgeStyle;rounded=0;orthogonalLoop=1;jettySize=auto;html=1;exitX=0.5;exitY=0;exitDx=0;exitDy=0;entryX=0.5;entryY=1;entryDx=0;entryDy=0;dashed=1;endArrow=none;endFill=0;" parent="1" source="UDWT9HmrUv0HXfJKakE0-34" target="UDWT9HmrUv0HXfJKakE0-45" edge="1">
          <mxGeometry relative="1" as="geometry" />
        </mxCell>
        <mxCell id="UDWT9HmrUv0HXfJKakE0-34" value="CLIENTE" style="rounded=0;whiteSpace=wrap;html=1;fillColor=#f8cecc;strokeColor=#b85450;" parent="1" vertex="1">
          <mxGeometry x="707" y="248" width="120" height="60" as="geometry" />
        </mxCell>
        <mxCell id="UDWT9HmrUv0HXfJKakE0-37" style="edgeStyle=orthogonalEdgeStyle;rounded=0;orthogonalLoop=1;jettySize=auto;html=1;exitX=0.5;exitY=1;exitDx=0;exitDy=0;entryX=0.5;entryY=0;entryDx=0;entryDy=0;endArrow=none;endFill=0;" parent="1" target="UDWT9HmrUv0HXfJKakE0-19" edge="1">
          <mxGeometry relative="1" as="geometry">
            <mxPoint x="767" y="308" as="sourcePoint" />
          </mxGeometry>
        </mxCell>
        <mxCell id="UDWT9HmrUv0HXfJKakE0-44" value="&lt;span style=&quot;text-align: left;&quot;&gt;&lt;u&gt;DNI&lt;/u&gt;&lt;/span&gt;&lt;br style=&quot;text-align: left;&quot;&gt;&lt;span style=&quot;text-align: left;&quot;&gt;Nombre&lt;/span&gt;&lt;br style=&quot;text-align: left;&quot;&gt;&lt;span style=&quot;text-align: left;&quot;&gt;Apellidos&lt;/span&gt;&lt;br style=&quot;text-align: left;&quot;&gt;&lt;span style=&quot;text-align: left;&quot;&gt;Domicilio&lt;/span&gt;&lt;br style=&quot;text-align: left;&quot;&gt;&lt;span style=&quot;text-align: left;&quot;&gt;TelÃ©fono&lt;/span&gt;&lt;br style=&quot;text-align: left;&quot;&gt;&lt;span style=&quot;text-align: left;&quot;&gt;E-Mail&lt;/span&gt;" style="ellipse;whiteSpace=wrap;html=1;rounded=1;" parent="1" vertex="1">
          <mxGeometry x="130" y="137" width="197" height="102" as="geometry" />
        </mxCell>
        <mxCell id="UDWT9HmrUv0HXfJKakE0-45" value="&lt;span style=&quot;&quot;&gt;&lt;u&gt;DNI&lt;/u&gt;&lt;/span&gt;&lt;br style=&quot;&quot;&gt;&lt;span style=&quot;&quot;&gt;Nombre&lt;/span&gt;&lt;br style=&quot;&quot;&gt;&lt;span style=&quot;&quot;&gt;Apellidos&lt;/span&gt;&lt;br style=&quot;&quot;&gt;&lt;span style=&quot;&quot;&gt;Domicilio&lt;/span&gt;&lt;br style=&quot;&quot;&gt;&lt;span style=&quot;&quot;&gt;TelÃ©fono&lt;/span&gt;&lt;br style=&quot;&quot;&gt;&lt;div style=&quot;&quot;&gt;&lt;span style=&quot;background-color: initial;&quot;&gt;Socio&lt;/span&gt;&lt;/div&gt;" style="ellipse;whiteSpace=wrap;html=1;rounded=1;align=center;fillColor=#fff2cc;strokeColor=#d6b656;" parent="1" vertex="1">
          <mxGeometry x="668.5" y="110" width="197" height="102" as="geometry" />
        </mxCell>
        <mxCell id="UDWT9HmrUv0HXfJKakE0-46" value="&lt;span style=&quot;text-align: left;&quot;&gt;&lt;u&gt;DNI&lt;/u&gt;&lt;/span&gt;&lt;br style=&quot;text-align: left;&quot;&gt;&lt;span style=&quot;text-align: left;&quot;&gt;Nombre&lt;/span&gt;&lt;br style=&quot;text-align: left;&quot;&gt;&lt;span style=&quot;text-align: left;&quot;&gt;Apellidos&lt;/span&gt;&lt;br style=&quot;text-align: left;&quot;&gt;&lt;span style=&quot;text-align: left;&quot;&gt;Domicilio&lt;/span&gt;&lt;br style=&quot;text-align: left;&quot;&gt;&lt;span style=&quot;text-align: left;&quot;&gt;TelÃ©fono&lt;/span&gt;&lt;br style=&quot;text-align: left;&quot;&gt;&lt;span style=&quot;text-align: left;&quot;&gt;E-Mail&lt;/span&gt;" style="ellipse;whiteSpace=wrap;html=1;rounded=1;fillColor=#fff2cc;strokeColor=#d6b656;" parent="1" vertex="1">
          <mxGeometry x="788.5" y="428" width="197" height="102" as="geometry" />
        </mxCell>
        <mxCell id="UDWT9HmrUv0HXfJKakE0-51" value="&lt;span style=&quot;text-align: left;&quot;&gt;Cdigo_Producto&amp;nbsp;*&lt;/span&gt;&lt;br style=&quot;text-align: left;&quot;&gt;&lt;span style=&quot;text-align: left;&quot;&gt;DescripciÃ³n&lt;/span&gt;&lt;br style=&quot;text-align: left;&quot;&gt;&lt;span style=&quot;text-align: left;&quot;&gt;Familia&lt;/span&gt;&lt;br style=&quot;text-align: left;&quot;&gt;&lt;span style=&quot;text-align: left;&quot;&gt;GÃ©nero&lt;/span&gt;&lt;br style=&quot;text-align: left;&quot;&gt;&lt;span style=&quot;text-align: left;&quot;&gt;Descuento_Socios&lt;/span&gt;&lt;br style=&quot;text-align: left;&quot;&gt;&lt;span style=&quot;text-align: left;&quot;&gt;Precio&lt;/span&gt;&lt;br style=&quot;text-align: left;&quot;&gt;&lt;span style=&quot;text-align: left;&quot;&gt;IVA&lt;/span&gt;" style="ellipse;whiteSpace=wrap;html=1;rounded=1;" parent="1" vertex="1">
          <mxGeometry x="548.5" y="158" width="140" height="160" as="geometry" />
        </mxCell>
        <mxCell id="UDWT9HmrUv0HXfJKakE0-53" value="&lt;div style=&quot;&quot;&gt;&lt;span style=&quot;background-color: initial;&quot;&gt;&lt;u&gt;DirecciÃ³n&lt;/u&gt;&lt;/span&gt;&lt;/div&gt;&lt;div style=&quot;&quot;&gt;&lt;span style=&quot;background-color: initial;&quot;&gt;Metros_Cuadrados&lt;/span&gt;&lt;/div&gt;&lt;div style=&quot;&quot;&gt;&lt;span style=&quot;background-color: initial;&quot;&gt;RÃ©gimen&lt;/span&gt;&lt;/div&gt;&lt;div style=&quot;&quot;&gt;&lt;span style=&quot;background-color: initial;&quot;&gt;Fecha_de_InaguraciÃ³n&lt;/span&gt;&lt;/div&gt;" style="ellipse;whiteSpace=wrap;html=1;rounded=1;align=center;fillColor=#fff2cc;strokeColor=#d6b656;" parent="1" vertex="1">
          <mxGeometry x="317" y="428" width="180" height="82" as="geometry" />
        </mxCell>
        <mxCell id="UDWT9HmrUv0HXfJKakE0-54" value="&lt;span style=&quot;text-align: left;&quot;&gt;&lt;u&gt;DNI&lt;/u&gt;&lt;/span&gt;&lt;br style=&quot;text-align: left;&quot;&gt;&lt;span style=&quot;text-align: left;&quot;&gt;Nombre&lt;/span&gt;&lt;br style=&quot;text-align: left;&quot;&gt;&lt;span style=&quot;text-align: left;&quot;&gt;Apellidos&lt;/span&gt;&lt;br style=&quot;text-align: left;&quot;&gt;&lt;span style=&quot;text-align: left;&quot;&gt;Domicilio&lt;/span&gt;&lt;br style=&quot;text-align: left;&quot;&gt;&lt;span style=&quot;text-align: left;&quot;&gt;TelÃ©fono&lt;/span&gt;&lt;br style=&quot;text-align: left;&quot;&gt;&lt;span style=&quot;text-align: left;&quot;&gt;E-Mail&lt;/span&gt;" style="ellipse;whiteSpace=wrap;html=1;rounded=1;fillColor=#fff2cc;strokeColor=#d6b656;" parent="1" vertex="1">
          <mxGeometry x="130" y="137" width="197" height="102" as="geometry" />
        </mxCell>
        <mxCell id="UDWT9HmrUv0HXfJKakE0-55" value="&lt;span style=&quot;text-align: left;&quot;&gt;&lt;u&gt;CÃ³digo_Producto&lt;/u&gt;&lt;/span&gt;&lt;br style=&quot;text-align: left;&quot;&gt;&lt;span style=&quot;text-align: left;&quot;&gt;DescripciÃ³n&lt;/span&gt;&lt;br style=&quot;text-align: left;&quot;&gt;&lt;span style=&quot;text-align: left;&quot;&gt;Familia&lt;/span&gt;&lt;br style=&quot;text-align: left;&quot;&gt;&lt;span style=&quot;text-align: left;&quot;&gt;GÃ©nero&lt;/span&gt;&lt;br style=&quot;text-align: left;&quot;&gt;&lt;span style=&quot;text-align: left;&quot;&gt;Descuento_Socios&lt;/span&gt;&lt;br style=&quot;text-align: left;&quot;&gt;&lt;span style=&quot;text-align: left;&quot;&gt;Precio&lt;/span&gt;&lt;br style=&quot;text-align: left;&quot;&gt;&lt;span style=&quot;text-align: left;&quot;&gt;IVA&lt;/span&gt;" style="ellipse;whiteSpace=wrap;html=1;rounded=1;fillColor=#fff2cc;strokeColor=#d6b656;" parent="1" vertex="1">
          <mxGeometry x="548.5" y="158" width="140" height="160" as="geometry" />
        </mxCell>
        <mxCell id="UDWT9HmrUv0HXfJKakE0-57" value="Fecha" style="ellipse;whiteSpace=wrap;html=1;rounded=1;fillColor=#fff2cc;strokeColor=#d6b656;" parent="1" vertex="1">
          <mxGeometry x="707" y="440" width="71" height="36" as="geometry" />
        </mxCell>
        <mxCell id="T8t1x1bYZv3rTWK3qDM8-4" style="edgeStyle=orthogonalEdgeStyle;rounded=0;orthogonalLoop=1;jettySize=auto;html=1;exitX=0;exitY=0.5;exitDx=0;exitDy=0;entryX=0;entryY=0.5;entryDx=0;entryDy=0;endArrow=none;endFill=0;" edge="1" parent="1" source="T8t1x1bYZv3rTWK3qDM8-1" target="UDWT9HmrUv0HXfJKakE0-1">
          <mxGeometry relative="1" as="geometry">
            <Array as="points">
              <mxPoint x="280" y="610" />
              <mxPoint x="280" y="368" />
            </Array>
          </mxGeometry>
        </mxCell>
        <mxCell id="T8t1x1bYZv3rTWK3qDM8-1" value="TRABAJA" style="rhombus;whiteSpace=wrap;html=1;fillColor=#e1d5e7;strokeColor=#9673a6;" vertex="1" parent="1">
          <mxGeometry x="600" y="570" width="80" height="80" as="geometry" />
        </mxCell>
      </root>
    </mxGraphModel>
  </diagram>
</mxfile>
